<?xml version="1.0" encoding="UTF-8" standalone="no"?>
<!-- Created with Inkscape (http://www.inkscape.org/) -->

<svg
   xmlns:dc="http://purl.org/dc/elements/1.1/"
   xmlns:cc="http://creativecommons.org/ns#"
   xmlns:rdf="http://www.w3.org/1999/02/22-rdf-syntax-ns#"
   xmlns:svg="http://www.w3.org/2000/svg"
   xmlns="http://www.w3.org/2000/svg"
   xmlns:sodipodi="http://sodipodi.sourceforge.net/DTD/sodipodi-0.dtd"
   xmlns:inkscape="http://www.inkscape.org/namespaces/inkscape"
   id="svg3023"
   version="1.1"
   inkscape:version="0.48.4 r9939"
   width="1052.3625"
   height="680.85"
   xml:space="preserve"
   sodipodi:docname="dreamstime_30214687.eps"><metadata
     id="metadata3029"><rdf:RDF><cc:Work
         rdf:about=""><dc:format>image/svg+xml</dc:format><dc:type
           rdf:resource="http://purl.org/dc/dcmitype/StillImage" /><dc:title></dc:title></cc:Work></rdf:RDF></metadata><defs
     id="defs3027"><radialGradient
       fx="0"
       fy="0"
       cx="0"
       cy="0"
       r="1"
       gradientUnits="userSpaceOnUse"
       gradientTransform="matrix(604.697,0,0,-604.697,407.445,281.487)"
       spreadMethod="pad"
       id="radialGradient3035"><stop
         style="stop-opacity:1;stop-color:#fffcff"
         offset="0"
         id="stop3037" /><stop
         style="stop-opacity:1;stop-color:#e0e0e0"
         offset="0.900539"
         id="stop3039" /><stop
         style="stop-opacity:1;stop-color:#e0e0e0"
         offset="0.900539"
         id="stop3041" /><stop
         style="stop-opacity:1;stop-color:#e0e0e0"
         offset="1"
         id="stop3043" /></radialGradient><clipPath
       clipPathUnits="userSpaceOnUse"
       id="clipPath3095"><path
         d="m 4450.12,2125.5 c -382.03,-306.31 -424.27,-83.86 -743.6,-147.2 288.24,275.95 466.06,19.82 743.6,147.2 z"
         id="path3097" /></clipPath><linearGradient
       x1="0"
       y1="0"
       x2="1"
       y2="0"
       gradientUnits="userSpaceOnUse"
       gradientTransform="matrix(89.1177,15.8547,15.8547,-89.1177,347.687,193.449)"
       spreadMethod="pad"
       id="linearGradient3099"><stop
         style="stop-opacity:1;stop-color:#ffde00"
         offset="0"
         id="stop3101" /><stop
         style="stop-opacity:1;stop-color:#ed8800"
         offset="1"
         id="stop3103" /></linearGradient><clipPath
       clipPathUnits="userSpaceOnUse"
       id="clipPath3111"><path
         d="m 3495.01,2191.97 c -431.39,346.33 -593.36,-10.45 -892.61,215.16 348.74,-474.33 646.64,-135.22 892.61,-215.16 z"
         id="path3113" /></clipPath><linearGradient
       x1="0"
       y1="0"
       x2="1"
       y2="0"
       gradientUnits="userSpaceOnUse"
       gradientTransform="matrix(152.817,16.2535,16.2535,-152.817,260.01,225.183)"
       spreadMethod="pad"
       id="linearGradient3115"><stop
         style="stop-opacity:1;stop-color:#ffde00"
         offset="0"
         id="stop3117" /><stop
         style="stop-opacity:1;stop-color:#ed8800"
         offset="1"
         id="stop3119" /></linearGradient><clipPath
       clipPathUnits="userSpaceOnUse"
       id="clipPath3127"><path
         d="m 5196.93,3772.66 c -38.52,-3.34 -72.44,25.19 -75.76,63.71 -3.32,38.52 25.21,72.44 63.73,75.77 38.52,3.31 72.43,-25.21 75.76,-63.74 3.32,-38.51 -25.2,-72.43 -63.73,-75.74 z m 406.33,60.13 c -427.42,339.52 -936.36,150.09 -1165.57,-276.18 -229.22,-426.29 -495.12,-660.01 -837.22,-533.91 158.44,-130.06 469.65,-150.21 670.27,-32.54 170.12,99.78 263.81,25.27 213.27,-86.99 -28.62,-63.6 -99.18,-128.84 -242.02,-161.39 -354.38,-80.76 -729.03,248.26 -1122.48,38.68 508.97,179.41 834.56,-482.58 1330.08,-321.88 195.9,63.52 279.13,64.56 253.49,-19.97 -20.85,-68.71 -267.09,-229.63 -557.18,-212 677.15,-112.23 1153.71,322.77 1169.67,868.72 13.98,477.98 64.82,703.18 287.69,737.46 z"
         id="path3129" /></clipPath><linearGradient
       x1="0"
       y1="0"
       x2="1"
       y2="0"
       gradientUnits="userSpaceOnUse"
       gradientTransform="matrix(200.485,97.991,97.991,-200.485,365.606,255.473)"
       spreadMethod="pad"
       id="linearGradient3131"><stop
         style="stop-opacity:1;stop-color:#ffb300"
         offset="0"
         id="stop3133" /><stop
         style="stop-opacity:1;stop-color:#d10000"
         offset="1"
         id="stop3135" /></linearGradient><clipPath
       clipPathUnits="userSpaceOnUse"
       id="clipPath3143"><path
         d="m 4116.52,2334.48 c -277.92,-94.24 -596.21,550.81 -1193.39,104.49 479.42,201.95 628.6,-364 1193.39,-104.49 z"
         id="path3145" /></clipPath><linearGradient
       x1="0"
       y1="0"
       x2="1"
       y2="0"
       gradientUnits="userSpaceOnUse"
       gradientTransform="matrix(116.815,-23.1727,-23.1727,-116.815,294.676,255.812)"
       spreadMethod="pad"
       id="linearGradient3147"><stop
         style="stop-opacity:1;stop-color:#ffde00"
         offset="0"
         id="stop3149" /><stop
         style="stop-opacity:1;stop-color:#ed8800"
         offset="1"
         id="stop3151" /></linearGradient></defs><sodipodi:namedview
     pagecolor="#ffffff"
     bordercolor="#666666"
     borderopacity="1"
     objecttolerance="10"
     gridtolerance="10"
     guidetolerance="10"
     inkscape:pageopacity="0"
     inkscape:pageshadow="2"
     inkscape:window-width="1920"
     inkscape:window-height="1056"
     id="namedview3025"
     showgrid="false"
     inkscape:zoom="1.3189396"
     inkscape:cx="526.18127"
     inkscape:cy="340.42499"
     inkscape:window-x="0"
     inkscape:window-y="24"
     inkscape:window-maximized="1"
     inkscape:current-layer="g3031" /><g
     id="g3031"
     inkscape:groupmode="layer"
     inkscape:label="ink_ext_XXXXXX"
     transform="matrix(1.25,0,0,-1.25,0,680.85)"><g
       id="g3033"
       transform="scale(0.1,0.1)"><path
         d="m 0,0 8418.9,0 0,5446.77 L 0,5446.77 0,0 z"
         style="fill:url(#radialGradient3035);fill-opacity:1;fill-rule:nonzero;stroke:none"
         id="path3045" /><path
         d="m 3073.59,1110.41 c 0,4.86 -0.96,9.46 -2.86,13.79 -1.91,4.35 -4.51,8.13 -7.81,11.37 -3.3,3.22 -7.14,5.81 -11.53,7.71 -4.4,1.91 -9.03,2.86 -13.89,2.86 l -106.52,0 0,-93.85 106.87,0 c 4.86,0 9.45,0.95 13.8,2.87 4.33,1.9 8.12,4.51 11.35,7.79 3.25,3.3 5.82,7.12 7.73,11.47 1.9,4.33 2.86,8.98 2.86,13.96 l 0,22.03 z m -155.79,48.93 119.7,0 c 6.83,0 13.22,-1.31 19.17,-3.91 5.96,-2.61 11.16,-6.15 15.62,-10.67 4.45,-4.51 7.98,-9.75 10.58,-15.7 2.61,-5.96 3.9,-12.29 3.9,-19.01 l 0,-21.67 c 0,-6.83 -1.29,-13.22 -3.9,-19.17 -2.6,-5.97 -6.16,-11.16 -10.67,-15.61 -4.51,-4.47 -9.74,-7.99 -15.7,-10.6 -5.96,-2.6 -12.29,-3.9 -19,-3.9 l -119.7,0 0,120.24"
         style="fill:#676f72;fill-opacity:1;fill-rule:nonzero;stroke:none"
         id="path3047" /><path
         d="m 3127.89,1088.38 c 0,-4.98 0.95,-9.63 2.87,-13.96 1.9,-4.35 4.51,-8.17 7.8,-11.47 3.3,-3.28 7.11,-5.89 11.45,-7.79 4.34,-1.92 8.99,-2.87 13.97,-2.87 l 89.17,0 c 4.97,0 9.66,0.95 14.05,2.87 4.4,1.9 8.24,4.51 11.54,7.79 3.29,3.3 5.9,7.12 7.81,11.47 1.9,4.33 2.86,8.98 2.86,13.96 l 0,21.67 c 0,4.98 -0.96,9.64 -2.86,13.98 -1.91,4.34 -4.52,8.15 -7.81,11.45 -3.3,3.29 -7.14,5.9 -11.54,7.8 -4.39,1.91 -9.08,2.86 -14.05,2.86 l -89.17,0 c -4.98,0 -9.63,-0.95 -13.97,-2.86 -4.34,-1.9 -8.15,-4.51 -11.45,-7.8 -3.29,-3.3 -5.9,-7.11 -7.8,-11.45 -1.92,-4.34 -2.87,-9 -2.87,-13.98 l 0,-21.67 z m 36.09,-49.28 c -6.83,0 -13.22,1.3 -19.17,3.9 -5.96,2.61 -11.16,6.13 -15.62,10.6 -4.45,4.45 -7.97,9.64 -10.58,15.61 -2.6,5.95 -3.9,12.34 -3.9,19.17 l 0,21.67 c 0,6.72 1.3,13.08 3.9,19.1 2.61,6.01 6.13,11.23 10.58,15.7 4.46,4.45 9.66,7.97 15.62,10.58 5.95,2.6 12.34,3.91 19.17,3.91 l 89.17,0 c 6.82,0 13.24,-1.31 19.26,-3.91 6.01,-2.61 11.24,-6.13 15.7,-10.58 4.45,-4.47 7.98,-9.69 10.58,-15.7 2.6,-6.02 3.9,-12.38 3.9,-19.1 l 0,-21.67 c 0,-6.83 -1.3,-13.22 -3.9,-19.17 -2.6,-5.97 -6.13,-11.16 -10.58,-15.61 -4.46,-4.47 -9.69,-7.99 -15.7,-10.6 -6.02,-2.6 -12.44,-3.9 -19.26,-3.9 l -89.17,0"
         style="fill:#676f72;fill-opacity:1;fill-rule:nonzero;stroke:none"
         id="path3049" /><path
         d="m 3344.4,1159.34 0,-70.78 c 0,-5.1 0.93,-9.81 2.78,-14.14 1.85,-4.35 4.45,-8.14 7.8,-11.38 3.36,-3.35 7.2,-5.98 11.54,-7.88 4.34,-1.92 9,-2.87 13.97,-2.87 l 101.32,0 0,-13.19 -101.32,0 c -6.83,0 -13.21,1.3 -19.18,3.9 -5.95,2.61 -11.18,6.17 -15.69,10.67 -4.4,4.41 -7.9,9.57 -10.5,15.54 -2.6,5.95 -3.9,12.4 -3.9,19.35 l 0,70.78 13.18,0"
         style="fill:#676f72;fill-opacity:1;fill-rule:nonzero;stroke:none"
         id="path3051" /><path
         d="m 3512.51,1088.38 c 0,-4.98 0.96,-9.63 2.86,-13.96 1.92,-4.35 4.51,-8.17 7.81,-11.47 3.3,-3.28 7.11,-5.89 11.45,-7.79 4.34,-1.92 8.99,-2.87 13.97,-2.87 l 89.17,0 c 4.97,0 9.66,0.95 14.05,2.87 4.4,1.9 8.24,4.51 11.54,7.79 3.3,3.3 5.9,7.12 7.81,11.47 1.91,4.33 2.85,8.98 2.85,13.96 l 0,21.67 c 0,4.98 -0.94,9.64 -2.85,13.98 -1.91,4.34 -4.51,8.15 -7.81,11.45 -3.3,3.29 -7.14,5.9 -11.54,7.8 -4.39,1.91 -9.08,2.86 -14.05,2.86 l -89.17,0 c -4.98,0 -9.63,-0.95 -13.97,-2.86 -4.34,-1.9 -8.15,-4.51 -11.45,-7.8 -3.3,-3.3 -5.89,-7.11 -7.81,-11.45 -1.9,-4.34 -2.86,-9 -2.86,-13.98 l 0,-21.67 z m 36.09,-49.28 c -6.83,0 -13.22,1.3 -19.18,3.9 -5.95,2.61 -11.15,6.13 -15.61,10.6 -4.45,4.45 -7.98,9.64 -10.58,15.61 -2.6,5.95 -3.9,12.34 -3.9,19.17 l 0,21.67 c 0,6.72 1.3,13.08 3.9,19.1 2.6,6.01 6.13,11.23 10.58,15.7 4.46,4.45 9.66,7.97 15.61,10.58 5.96,2.6 12.35,3.91 19.18,3.91 l 89.17,0 c 6.82,0 13.25,-1.31 19.26,-3.91 6.01,-2.61 11.24,-6.13 15.7,-10.58 4.45,-4.47 7.98,-9.69 10.59,-15.7 2.59,-6.02 3.89,-12.38 3.89,-19.1 l 0,-21.67 c 0,-6.83 -1.3,-13.22 -3.89,-19.17 -2.61,-5.97 -6.14,-11.16 -10.59,-15.61 -4.46,-4.47 -9.69,-7.99 -15.7,-10.6 -6.01,-2.6 -12.44,-3.9 -19.26,-3.9 l -89.17,0"
         style="fill:#676f72;fill-opacity:1;fill-rule:nonzero;stroke:none"
         id="path3053" /><path
         d="m 3715.84,1039.1 0,70.95 c 0,6.72 1.3,13.08 3.9,19.1 2.6,6.01 6.13,11.23 10.58,15.7 4.46,4.45 9.66,7.97 15.62,10.58 5.95,2.6 12.34,3.91 19.17,3.91 l 89.17,0 0,-13.2 -89.17,0 c -4.97,0 -9.63,-0.95 -13.97,-2.86 -4.34,-1.9 -8.15,-4.51 -11.45,-7.8 -3.29,-3.3 -5.9,-7.11 -7.81,-11.45 -1.9,-4.34 -2.86,-9 -2.86,-13.98 l 0,-70.95 -13.18,0"
         style="fill:#676f72;fill-opacity:1;fill-rule:nonzero;stroke:none"
         id="path3055" /><path
         d="m 3935.3,1039.1 0,13.19 114.68,0 c 2.77,0 5.38,0.52 7.8,1.56 2.43,1.04 4.57,2.49 6.42,4.34 1.85,1.85 3.3,3.99 4.34,6.41 1.04,2.44 1.56,5.05 1.56,7.81 0,2.79 -0.52,5.41 -1.56,7.9 -1.04,2.49 -2.46,4.65 -4.25,6.51 -1.79,1.84 -3.94,3.28 -6.42,4.32 -2.49,1.05 -5.12,1.57 -7.89,1.57 l -87.96,0 c -4.51,0 -8.79,0.87 -12.84,2.6 -4.05,1.73 -7.6,4.11 -10.67,7.12 -3.07,3.01 -5.47,6.54 -7.2,10.58 -1.74,4.05 -2.6,8.38 -2.6,13.02 0,4.62 0.86,8.98 2.6,13.09 1.73,4.11 4.11,7.66 7.11,10.67 3.01,3.01 6.54,5.41 10.59,7.19 4.04,1.81 8.38,2.7 13.01,2.7 l 114.67,0 0,-13.18 -114.67,0 c -2.89,0 -5.53,-0.55 -7.9,-1.65 -2.37,-1.1 -4.45,-2.55 -6.24,-4.34 -1.8,-1.81 -3.21,-3.91 -4.25,-6.33 -1.04,-2.44 -1.63,-5.03 -1.74,-7.81 0.46,-5.79 2.55,-10.64 6.25,-14.58 3.7,-3.93 8.32,-5.89 13.88,-5.89 l 87.96,0 c 4.62,0 8.96,-0.87 13,-2.61 4.06,-1.73 7.58,-4.1 10.59,-7.12 3.01,-3 5.38,-6.53 7.11,-10.57 1.74,-4.05 2.61,-8.38 2.61,-13.01 0,-4.63 -0.87,-8.96 -2.61,-13.01 -1.73,-4.05 -4.1,-7.61 -7.11,-10.67 -3.01,-3.07 -6.53,-5.47 -10.59,-7.2 -4.04,-1.74 -8.38,-2.61 -13,-2.61 l -114.68,0"
         style="fill:#676f72;fill-opacity:1;fill-rule:nonzero;stroke:none"
         id="path3057" /><path
         d="m 4111.91,1039.1 13.1914,0 0,120.238 -13.1914,0 0,-120.238 z"
         style="fill:#676f72;fill-opacity:1;fill-rule:nonzero;stroke:none"
         id="path3059" /><path
         d="m 4285.92,1129.33 -114.85,0 0,-40.77 c 0,-5.1 0.92,-9.81 2.77,-14.14 1.85,-4.35 4.46,-8.14 7.82,-11.38 3.34,-3.35 7.19,-5.98 11.53,-7.88 4.33,-1.92 8.99,-2.87 13.96,-2.87 l 101.33,0 0,-13.19 -101.33,0 c -6.82,0 -13.21,1.3 -19.17,3.9 -5.95,2.61 -11.19,6.17 -15.69,10.67 -4.4,4.41 -7.9,9.57 -10.5,15.54 -2.61,5.95 -3.9,12.4 -3.9,19.35 l 0,70.78 13.18,0 0,-16.83 114.85,0 0,-13.18"
         style="fill:#676f72;fill-opacity:1;fill-rule:nonzero;stroke:none"
         id="path3061" /><path
         d="m 4428.18,1095.15 c -3.47,-2.21 -6.2,-4.98 -8.15,-8.33 -1.96,-3.36 -2.96,-7.05 -2.96,-11.1 0,-3.37 0.67,-6.46 2,-9.29 1.32,-2.83 3.13,-5.29 5.37,-7.37 2.27,-2.08 4.88,-3.73 7.82,-4.95 2.95,-1.22 6.1,-1.82 9.45,-1.82 l 103.4,0 0,47.02 -102.7,0 c -2.66,0 -5.21,-0.37 -7.63,-1.13 -2.44,-0.75 -4.63,-1.77 -6.6,-3.03 z m 14.23,-56.05 c -7.87,0 -14.99,2 -21.34,5.99 -6.37,3.99 -11.05,9.39 -14.06,16.22 -2.08,4.51 -3.12,9.31 -3.12,14.41 0,5.2 1.01,10.02 3.04,14.47 2.03,4.46 4.77,8.34 8.24,11.63 3.46,3.3 7.49,5.91 12.06,7.8 4.57,1.92 9.39,2.87 14.48,2.87 l 103.4,0 0,8.16 c 0,3.46 -0.7,6.76 -2.07,9.88 -1.4,3.12 -3.28,5.81 -5.65,8.08 -2.37,2.24 -5.1,4.06 -8.15,5.45 -3.07,1.39 -6.33,2.08 -9.81,2.08 l -87.26,0 0,13.2 87.26,0 c 5.33,0 10.36,-1.03 15.1,-3.05 4.75,-2.02 8.84,-4.79 12.32,-8.32 3.46,-3.52 6.24,-7.63 8.33,-12.31 2.08,-4.7 3.11,-9.7 3.11,-15.01 l 0,-81.72 -115.88,0.17"
         style="fill:#676f72;fill-opacity:1;fill-rule:nonzero;stroke:none"
         id="path3063" /><path
         d="m 4859.64,1155.43 c 6.01,-2.61 11.25,-6.13 15.71,-10.58 4.44,-4.47 7.97,-9.69 10.58,-15.7 2.61,-6.02 3.9,-12.44 3.9,-19.26 l 0,-70.79 -13.19,0 0,70.79 c 0,4.86 -0.96,9.48 -2.85,13.87 -1.91,4.4 -4.49,8.24 -7.73,11.55 -3.24,3.3 -7.02,5.92 -11.35,7.89 -4.35,1.97 -8.95,2.94 -13.79,2.94 l -66.63,0 0,-107.04 -13.19,0 0,107.04 -91.08,0 0,-107.04 -13.18,0 0,120.24 183.72,0 c 6.71,0 13.06,-1.31 19.08,-3.91"
         style="fill:#676f72;fill-opacity:1;fill-rule:nonzero;stroke:none"
         id="path3065" /><path
         d="m 4957.31,1145.98 c -2.53,0 -5.31,-0.59 -8.31,-1.74 -3.01,-1.16 -5.79,-2.75 -8.33,-4.76 -2.54,-2.04 -4.65,-4.47 -6.33,-7.3 -1.68,-2.83 -2.52,-5.92 -2.52,-9.29 l 0,-24.11 106.7,0 c 3.23,0 6.35,0.62 9.37,1.83 3,1.21 5.65,2.89 7.97,5.03 2.31,2.14 4.13,4.63 5.48,7.46 1.32,2.83 1.98,5.93 1.98,9.29 0,3.34 -0.69,6.47 -2.08,9.35 -1.39,2.9 -3.27,5.38 -5.64,7.47 -2.38,2.08 -5.08,3.72 -8.15,4.94 -3.07,1.21 -6.28,1.83 -9.63,1.83 l -80.51,0 z m -38.68,-23.09 c 0,5.1 1.07,9.88 3.22,14.32 2.13,4.45 4.97,8.3 8.49,11.54 3.53,3.23 7.61,5.77 12.23,7.63 4.63,1.85 9.54,2.78 14.74,2.78 l 81.21,0 c 5.08,0 9.91,-0.95 14.48,-2.87 4.57,-1.9 8.59,-4.53 12.06,-7.88 3.48,-3.37 6.25,-7.27 8.33,-11.72 2.07,-4.45 3.11,-9.23 3.11,-14.3 0,-5.22 -1.04,-10.05 -3.11,-14.5 -2.08,-4.45 -4.92,-8.32 -8.51,-11.63 -3.59,-3.29 -7.68,-5.9 -12.31,-7.79 -4.63,-1.91 -9.55,-2.87 -14.75,-2.87 l -106,0 0,-16.48 c 0.46,-3.01 1.47,-5.55 3.03,-7.63 1.57,-2.08 3.5,-3.82 5.82,-5.22 2.31,-1.38 4.92,-2.39 7.81,-3.03 2.88,-0.63 5.83,-0.95 8.83,-0.95 l 110,0 0,-13.19 -110.86,0 c -4.4,0 -8.81,0.7 -13.28,2.08 -4.44,1.4 -8.46,3.36 -12.05,5.91 -3.58,2.54 -6.53,5.66 -8.85,9.36 -2.31,3.71 -3.53,7.93 -3.64,12.67 l 0,53.77"
         style="fill:#676f72;fill-opacity:1;fill-rule:nonzero;stroke:none"
         id="path3067" /><path
         d="m 5235.24,1129.33 -114.84,0 0,-40.77 c 0,-5.1 0.92,-9.81 2.76,-14.14 1.86,-4.35 4.47,-8.14 7.82,-11.38 3.35,-3.35 7.2,-5.98 11.53,-7.88 4.35,-1.92 8.99,-2.87 13.96,-2.87 l 101.33,0 0,-13.19 -101.33,0 c -6.82,0 -13.21,1.3 -19.16,3.9 -5.96,2.61 -11.19,6.17 -15.71,10.67 -4.39,4.41 -7.88,9.57 -10.49,15.54 -2.6,5.95 -3.89,12.4 -3.89,19.35 l 0,70.78 13.18,0 0,-16.83 114.84,0 0,-13.18"
         style="fill:#676f72;fill-opacity:1;fill-rule:nonzero;stroke:none"
         id="path3069" /><path
         d="m 2489.55,1354.39 -234.38,0 c -12.6,0 -24.84,4.46 -36.72,13.38 -11.89,8.92 -21.66,19.37 -29.32,31.34 -7.67,11.99 -11.5,21.49 -11.5,28.52 l 0,206.84 77.54,0 0,-168.17 c 0,-9.37 2.57,-17.58 7.72,-24.61 5.14,-7.03 11.19,-12.33 18.16,-15.92 6.96,-3.57 12.72,-5.37 17.28,-5.37 l 191.22,0 0,-66.01"
         style="fill:#676f72;fill-opacity:1;fill-rule:nonzero;stroke:none"
         id="path3071" /><path
         d="m 2822.16,1465.86 0,57.53 c 0,12.1 -4.1,22.36 -12.3,30.82 -8.2,8.46 -21.16,12.68 -38.87,12.68 l -124.02,0 c -4.82,0 -10.78,-1.82 -17.87,-5.46 -7.1,-3.64 -13.28,-8.45 -18.56,-14.43 -5.27,-5.98 -7.91,-12.36 -7.91,-19.12 l 0,-54.8 c 0.26,-13.14 3.81,-24.18 10.65,-33.17 6.83,-8.96 17.02,-13.45 30.56,-13.45 l 138.09,0 c 11.2,0 20.7,3.02 28.51,9.08 7.82,6.03 11.72,16.15 11.72,30.32 z m 80.47,-26.32 c 0,-15.48 -4.33,-29.74 -12.99,-42.77 -8.66,-13.02 -19.21,-23.34 -31.64,-30.96 -12.43,-7.61 -23.41,-11.42 -32.91,-11.42 l -215.23,0 c -17.71,0 -33.4,4.63 -47.07,13.86 -13.67,9.25 -24.19,20.78 -31.54,34.57 -7.36,13.81 -11.04,27.03 -11.04,39.65 l 0,105.08 c 0,11.47 2.5,22.43 7.52,32.91 5.01,10.49 11.62,19.77 19.82,27.83 8.21,8.08 17.16,14.46 26.86,19.14 9.7,4.69 18.97,7.04 27.83,7.04 l 211.92,0 c 9.5,0 21.22,-3.13 35.15,-9.38 13.93,-6.25 26.3,-16.41 37.11,-30.47 10.81,-14.06 16.21,-32.16 16.21,-54.3 l 0,-100.78"
         style="fill:#676f72;fill-opacity:1;fill-rule:nonzero;stroke:none"
         id="path3073" /><path
         d="m 3418.06,1263.18 -104.73,0 -184.43,198.04 -104.39,0 0,-106.83 -81.25,0 0,174.02 253.14,0 c 5.07,0 10.08,1.86 15.03,5.57 4.94,3.71 7.41,8.88 7.41,15.52 0,4.83 -1.2,8.67 -3.61,11.53 -2.4,2.87 -5.56,4.95 -9.46,6.25 -3.91,1.31 -8.01,1.95 -12.3,1.95 l -250.21,0 0,65.24 305.66,0 c 14.32,0 26.63,-5.14 36.91,-15.43 10.29,-10.29 15.43,-22.66 15.43,-37.11 l 0,-69.93 c 0,-12.36 -2.51,-21.97 -7.53,-28.8 -5.03,-6.84 -11.03,-11.56 -18.01,-14.16 -6.98,-2.6 -15.02,-4.43 -24.08,-5.47 -9.08,-1.04 -14.39,-1.82 -15.96,-2.35 l 182.38,-198.04"
         style="fill:#676f72;fill-opacity:1;fill-rule:nonzero;stroke:none"
         id="path3075" /><path
         d="m 3630.37,1547.94 c 0,5.86 -2.47,10.62 -7.42,14.26 -4.94,3.65 -10.47,5.47 -16.59,5.47 l -167.82,0.39 c -7.15,0 -13.62,-3.13 -19.41,-9.38 -5.8,-6.25 -8.69,-13.01 -8.69,-20.31 l 0,-11.52 219.54,0 0.39,21.09 z m 78.9,-41.21 c 0,-12.5 -3.32,-23.01 -9.96,-31.54 -6.64,-8.53 -17.71,-12.8 -33.2,-12.8 l -255.67,0.4 0,-13.68 c 0,-7.03 2.7,-13.57 8.11,-19.63 5.4,-6.05 11.23,-9.08 17.48,-9.08 l 268.94,0 0,-66.01 -283.98,0 c -18.89,0 -35.22,4.98 -49.03,14.94 -13.8,9.96 -24.28,21.58 -31.44,34.86 -7.16,13.28 -10.74,24.16 -10.74,32.62 l 0,121.48 c 0,9.38 2.57,18.66 7.72,27.84 5.14,9.18 11.94,17.48 20.41,24.9 8.46,7.42 17.34,13.25 26.66,17.48 9.3,4.24 17.93,6.35 25.87,6.35 l 232.04,0 c 6.64,0 14.06,-2.05 22.26,-6.16 8.2,-4.1 15.63,-9.21 22.27,-15.33 6.64,-6.11 12.01,-12.63 16.11,-19.53 4.1,-6.89 6.15,-13.41 6.15,-19.53 l 0,-67.58"
         style="fill:#676f72;fill-opacity:1;fill-rule:nonzero;stroke:none"
         id="path3077" /><path
         d="m 4222.17,1354.78 -80.87,0 0,173.63 c 0,2.87 -1.2,5.37 -3.61,7.52 -2.41,2.15 -4.66,3.22 -6.74,3.22 -5.73,0 -9.76,-2.54 -12.11,-7.61 l -97.07,-176.76 -76.56,0 -100,177.54 c -0.52,2.21 -1.63,4.17 -3.32,5.86 -1.69,1.7 -3.49,2.96 -5.37,3.8 -1.89,0.85 -3.36,1.27 -4.4,1.27 -2.47,0 -4.68,-1.29 -6.64,-3.9 -1.95,-2.6 -2.93,-5.33 -2.93,-8.21 l 0,-176.36 -79.29,0 0,215.62 c 0,10.42 2.54,20.02 7.61,28.81 5.08,8.79 11.46,16.18 19.14,22.17 7.69,6 15.82,10.64 24.42,13.96 8.59,3.32 16.08,4.98 22.46,4.98 18.23,0 33.5,-4.64 45.8,-13.96 12.31,-9.31 25.16,-25.29 38.57,-47.95 l 80.08,-144.34 82.42,144.73 c 10.68,20.06 22.33,35.32 34.97,45.8 12.62,10.49 28.25,15.72 46.87,15.72 10.94,0 21.19,-2.14 30.76,-6.44 9.57,-4.3 17.81,-10.09 24.71,-17.38 6.9,-7.29 12.14,-15.3 15.72,-24.03 3.58,-8.72 5.38,-17.18 5.38,-25.39 l 0,-212.3"
         style="fill:#676f72;fill-opacity:1;fill-rule:nonzero;stroke:none"
         id="path3079" /><path
         d="m 4418.85,1354.78 80.4688,0 0,279.688 -80.4688,0 0,-279.688 z"
         style="fill:#676f72;fill-opacity:1;fill-rule:nonzero;stroke:none"
         id="path3081" /><path
         d="m 4899.32,1515.13 c 0,-15.63 -3.79,-28.84 -11.33,-39.65 -7.56,-10.8 -20.2,-16.21 -37.89,-16.21 l -229.1,0 0,-104.88 -80.47,0 0,172.46 261.72,0 c 3.51,0 7.03,2.02 10.54,6.05 3.52,4.05 5.28,8.54 5.28,13.48 0,4.82 -1.47,8.86 -4.4,12.11 -2.93,3.26 -6.87,5.66 -11.81,7.23 -4.97,1.56 -9.91,2.34 -14.85,2.34 l -246.48,0 0,66.41 301.95,0 c 20.96,0 35.66,-5.08 44.14,-15.24 8.46,-10.16 12.7,-22.98 12.7,-38.48 l 0,-65.62"
         style="fill:#676f72;fill-opacity:1;fill-rule:nonzero;stroke:none"
         id="path3083" /><path
         d="m 5292.87,1397.55 c 0,-11.72 -3.42,-21.83 -10.25,-30.37 -6.84,-8.53 -16.45,-12.79 -28.81,-12.79 l -324.02,0 0,68.75 259.78,0 c 4.55,0 9.36,1.66 14.43,4.98 5.08,3.32 7.62,8.37 7.62,15.13 0,3.66 -1.07,7.1 -3.22,10.36 -2.15,3.26 -5.37,5.86 -9.67,7.81 -4.3,1.95 -8.96,2.93 -14.04,2.93 l -196.55,0 c -9.37,0 -17.73,2.38 -25.07,7.13 -7.37,4.75 -13.01,10.29 -17,16.6 -3.96,6.32 -5.93,11.49 -5.93,15.53 l 0,90.82 c 0,7.81 4.31,16.44 12.99,25.88 8.65,9.44 19.8,14.16 33.47,14.16 l 291,0 0,-66.41 -240.2,0 c -4.96,0 -8.92,-2.08 -11.91,-6.25 -3.01,-4.16 -4.49,-8.53 -4.49,-13.09 0,-4.16 2.05,-8.59 6.15,-13.28 4.1,-4.69 9.92,-7.03 17.48,-7.03 l 197.07,0 c 17.44,0 30.33,-4.49 38.67,-13.48 8.32,-8.98 12.5,-20.76 12.5,-35.35 l 0,-82.03"
         style="fill:#676f72;fill-opacity:1;fill-rule:nonzero;stroke:none"
         id="path3085" /><path
         d="m 5689.36,1430.75 c 0,-9.5 -3.7,-20.31 -11.04,-32.42 -7.36,-12.11 -16.64,-22.46 -27.83,-31.05 -11.21,-8.6 -22.27,-12.89 -33.2,-12.89 l -197.47,0 c -15.89,0 -30.64,4.63 -44.23,13.86 -13.62,9.25 -24.32,20.94 -32.13,35.06 -7.82,14.13 -11.72,27.83 -11.72,41.12 l 0,190.04 79.3,0 0,-169.34 c 0,-7.68 2.24,-14.75 6.73,-21.19 4.5,-6.45 9.77,-11.53 15.82,-15.24 6.06,-3.71 11.43,-5.56 16.12,-5.56 l 121.29,0 c 5.07,0 10.45,2.18 16.11,6.54 5.66,4.37 10.37,9.57 14.16,15.63 3.77,6.05 5.66,11.23 5.66,15.52 l 0,173.64 82.43,0 0,-203.72"
         style="fill:#676f72;fill-opacity:1;fill-rule:nonzero;stroke:none"
         id="path3087" /><path
         d="m 6201.46,1354.78 -80.85,0 0,173.63 c 0,2.87 -1.22,5.37 -3.62,7.52 -2.42,2.15 -4.67,3.22 -6.74,3.22 -5.74,0 -9.76,-2.54 -12.11,-7.61 l -97.07,-176.76 -76.56,0 -100,177.54 c -0.53,2.21 -1.64,4.17 -3.32,5.86 -1.7,1.7 -3.49,2.96 -5.37,3.8 -1.89,0.85 -3.36,1.27 -4.39,1.27 -2.48,0 -4.69,-1.29 -6.64,-3.9 -1.96,-2.6 -2.93,-5.33 -2.93,-8.21 l 0,-176.36 -79.3,0 0,215.62 c 0,10.42 2.54,20.02 7.62,28.81 5.07,8.79 11.44,16.18 19.14,22.17 7.67,6 15.82,10.64 24.41,13.96 8.59,3.32 16.07,4.98 22.46,4.98 18.22,0 33.5,-4.64 45.8,-13.96 12.31,-9.31 25.16,-25.29 38.58,-47.95 l 80.07,-144.34 82.43,144.73 c 10.66,20.06 22.32,35.32 34.96,45.8 12.61,10.49 28.24,15.72 46.87,15.72 10.94,0 21.19,-2.14 30.76,-6.44 9.57,-4.3 17.8,-10.09 24.71,-17.38 6.9,-7.29 12.13,-15.3 15.72,-24.03 3.58,-8.72 5.37,-17.18 5.37,-25.39 l 0,-212.3"
         style="fill:#676f72;fill-opacity:1;fill-rule:nonzero;stroke:none"
         id="path3089" /><g
         id="g3091"><g
           id="g3093"
           clip-path="url(#clipPath3095)"><path
             d="m 4450.12,2125.5 c -382.03,-306.31 -424.27,-83.86 -743.6,-147.2 288.24,275.95 466.06,19.82 743.6,147.2"
             style="fill:url(#linearGradient3099);fill-opacity:1;fill-rule:nonzero;stroke:none"
             id="path3105" /></g></g><g
         id="g3107"><g
           id="g3109"
           clip-path="url(#clipPath3111)"><path
             d="m 3495.01,2191.97 c -431.39,346.33 -593.36,-10.45 -892.61,215.16 348.74,-474.33 646.64,-135.22 892.61,-215.16"
             style="fill:url(#linearGradient3115);fill-opacity:1;fill-rule:nonzero;stroke:none"
             id="path3121" /></g></g><g
         id="g3123"><g
           id="g3125"
           clip-path="url(#clipPath3127)"><path
             d="m 5196.93,3772.66 c -38.52,-3.34 -72.44,25.19 -75.76,63.71 -3.32,38.52 25.21,72.44 63.73,75.77 38.52,3.31 72.43,-25.21 75.76,-63.74 3.32,-38.51 -25.2,-72.43 -63.73,-75.74 z m 406.33,60.13 c -427.42,339.52 -936.36,150.09 -1165.57,-276.18 -229.22,-426.29 -495.12,-660.01 -837.22,-533.91 158.44,-130.06 469.65,-150.21 670.27,-32.54 170.12,99.78 263.81,25.27 213.27,-86.99 -28.62,-63.6 -99.18,-128.84 -242.02,-161.39 -354.38,-80.76 -729.03,248.26 -1122.48,38.68 508.97,179.41 834.56,-482.58 1330.08,-321.88 195.9,63.52 279.13,64.56 253.49,-19.97 -20.85,-68.71 -267.09,-229.63 -557.18,-212 677.15,-112.23 1153.71,322.77 1169.67,868.72 13.98,477.98 64.82,703.18 287.69,737.46"
             style="fill:url(#linearGradient3131);fill-opacity:1;fill-rule:nonzero;stroke:none"
             id="path3137" /></g></g><g
         id="g3139"><g
           id="g3141"
           clip-path="url(#clipPath3143)"><path
             d="m 4116.52,2334.48 c -277.92,-94.24 -596.21,550.81 -1193.39,104.49 479.42,201.95 628.6,-364 1193.39,-104.49"
             style="fill:url(#linearGradient3147);fill-opacity:1;fill-rule:nonzero;stroke:none"
             id="path3153" /></g></g></g></g></svg>