<?xml version="1.0" standalone="no"?> <!DOCTYPE svg PUBLIC "-//W3C//DTD SVG 1.0//EN" "http://www.w3.org/TR/2001/REC-SVG-20010904/DTD/svg10.dtd" > <svg xmlns="http://www.w3.org/2000/svg" width="100%" height="100%">
<defs >
<font id="chevinlight" horiz-adv-x="415" ><font-face
    font-family="ChevinLight"
    units-per-em="1000"
    panose-1="0 0 3 0 0 0 0 0 0 0"
    ascent="1005"
    descent="-244"
    alphabetic="0" />
<missing-glyph horiz-adv-x="500" d="M63 0H438V760H63V0ZM125 63V698H375V63H125Z" />
<glyph unicode=" " glyph-name="space" horiz-adv-x="288" />
<glyph unicode="!" glyph-name="exclam" horiz-adv-x="262" d="M173 699Q174 738 136 738Q97 738 99 699L107 223Q108 190 136 190Q163 190 165 223L173 699ZM184 38Q184 58 170 72T136 86Q116 86 102 72T88 38Q88 19 102 5T136 -10Q156 -10 170 4T184 38Z" />
<glyph unicode="&quot;" glyph-name="quotedbl" horiz-adv-x="327" d="M277 700Q279 738 242 738Q205 738 207 700L214 569Q215 539 242 539Q268 539 270 569L277 700ZM117 700Q119 738 82 738Q45 738 47 700L54 569Q55 539 82 539Q108 539 110 569L117 700Z" />
<glyph unicode="#" glyph-name="numbersign" horiz-adv-x="752" d="M713 503Q713 534 682 534H560L585 702Q590 734 559 738Q528 743 524 712L497 534H296L322 702Q327 734 296 738Q283 740 273 733T260 712L233 534H101Q70 534 70 503Q70 473 101 473H224L191
253H58Q27 253 27 222Q27 210 36 201T58 192H181L156 26Q152 -5 182 -9Q214 -14 218 16L244 192H445L420 26Q416 -5 445 -9Q477 -14 481 16L508 192H639Q652 192 661 201T670 222Q670 253 639 253H517L550 473H682Q713 473 713 503ZM487 473L454 253H253L287 473H487Z"
/>
<glyph unicode="$" glyph-name="dollar" horiz-adv-x="573" d="M523 208Q523 308 456 353Q419 378 340 394Q221 418 220 418Q120 446 120 534Q120 600 164 638T284 677Q323 677 377 661Q434 646 440 646Q471 646 471 679Q471 697 450 708Q387 736 302 737V810Q302
839 273 839Q244 839 244 810V735Q157 725 106 671T54 529Q54 418 145 376Q180 359 254 346Q298 338 324 332T361 323Q457 293 457 204Q457 135 410 94Q361 51 264 51Q242 51 215 55T154 68Q88 86 84 86Q54 86 54 54Q54 33 74 24Q145 -8 244 -9V-82Q244 -111 273
-111Q302 -111 302 -82V-8Q407 0 465 57T523 208Z" />
<glyph unicode="%" glyph-name="percent" horiz-adv-x="550" d="M271 562V628Q271 677 241 707T165 738Q117 738 88 708T58 628V562Q58 511 87 482T165 452Q211 452 241 481T271 562ZM426 706Q433 728 411 737Q388 746 380 723L124 23Q115 -1 139 -8Q161 -17 170
6L426 706ZM492 101V167Q492 218 463 247T385 277Q339 277 309 247T279 167V101Q279 50 309 21T385 -9Q433 -9 462 20T492 101ZM223 559Q223 496 165 496Q106 496 106 559V630Q106 694 165 694Q223 694 223 630V559ZM445 98Q445 35 385 35Q327 35 327 98V170Q327
232 385 232Q445 232 445 170V98Z" />
<glyph unicode="&amp;" glyph-name="ampersand" horiz-adv-x="617" d="M586 22Q586 35 579 43L511 132Q565 217 570 335Q571 349 562 358T539 368Q508 368 507 338Q502 249 469 187L275 442Q253 471 241 487T226 508Q198 551 198 582Q198 628 230 655Q258 679
296 679Q347 679 382 654Q386 652 393 644T412 623Q430 603 440 603Q453 603 462 612T472 635Q472 650 454 673T408 713Q365 738 296 738Q232 738 186 702Q132 658 132 584Q132 523 212 419Q50 323 50 195Q50 111 101 54Q158 -10 257 -10Q387 -10 470 80L528 4Q539
-10 554 -10Q567 -10 576 -1T586 22ZM432 130Q367 50 259 50Q190 50 150 95Q113 135 113 196Q113 298 249 371L432 130Z" />
<glyph unicode="&apos;" glyph-name="quotesingle" horiz-adv-x="171" d="M121 700Q123 738 85 738Q48 738 50 700L57 569Q58 539 85 539Q112 539 114 569L121 700Z" />
<glyph unicode="(" glyph-name="parenleft" horiz-adv-x="273" d="M225 -66Q225 -57 221 -50Q163 66 140 150Q114 248 114 364Q114 609 219 773Q225 782 225 794Q225 825 193 825Q177 825 167 810Q48 629 48 364Q48 97 167 -82Q177 -97 193 -97Q225 -97 225 -66Z" />
<glyph unicode=")" glyph-name="parenright" horiz-adv-x="273" d="M225 364Q225 635 107 810Q96 825 80 825Q48 825 48 794Q48 782 54 773Q159 608 159 364Q159 120 54 -46Q48 -57 48 -66Q48 -97 80 -97Q96 -97 107 -82Q225 93 225 364Z" />
<glyph unicode="*" glyph-name="asterisk" horiz-adv-x="479" d="M428 600Q421 622 400 622Q394 622 387 619L264 572L270 704Q271 737 239 737Q207 737 209 704L215 572L92 619Q84 622 79 622Q58 622 51 600Q49 592 49 589Q49 568 73 561L200 526L118 423Q110
412 110 401Q110 390 120 381T141 371Q157 371 167 387L239 497L312 387Q322 371 338 371Q349 371 359 380T369 401Q369 412 361 423L279 526L406 561Q430 568 430 589Q430 592 428 600Z" />
<glyph unicode="+" glyph-name="plus" horiz-adv-x="535" d="M474 273Q474 304 443 304H298V449Q298 479 267 479Q237 479 237 449V304H92Q61 304 61 273Q61 242 92 242H237V97Q237 67 267 67Q298 67 298 97V242H443Q474 242 474 273Z" />
<glyph unicode="," glyph-name="comma" horiz-adv-x="219" d="M151 29Q151 87 102 87Q82 87 68 74T54 40Q54 1 91 -6Q88 -29 71 -45Q55 -60 55 -67Q55 -84 72 -84Q92 -84 119 -53Q151 -16 151 29Z" />
<glyph unicode="-" glyph-name="hyphen" horiz-adv-x="481" d="M406 293Q406 323 376 323H105Q75 323 75 293Q75 280 84 271T105 262H376Q388 262 397 271T406 293Z" />
<glyph unicode="." glyph-name="period" horiz-adv-x="224" d="M156 39Q156 59 142 73T108 87Q88 87 74 73T60 39Q60 20 74 6T108 -9Q128 -9 142 5T156 39Z" />
<glyph unicode="/" glyph-name="slash" horiz-adv-x="308" d="M310 764Q311 767 311 773Q311 804 280 804Q258 804 251 783L-12 -36Q-13 -39 -13 -45Q-13 -77 18 -77Q40 -77 47 -55L310 764Z" />
<glyph unicode="0" glyph-name="zero" horiz-adv-x="560" d="M506 255V474Q506 587 454 657Q394 738 280 738Q166 738 106 657Q54 587 54 474V255Q54 141 106 71Q166 -9 280 -9Q394 -9 454 71Q506 141 506 255ZM440 257Q440 164 402 111Q360 53 280 53Q198 53
158 111Q120 164 120 257V471Q120 563 158 618Q198 676 280 676Q360 676 402 618Q440 563 440 471V257Z" />
<glyph unicode="1" glyph-name="one" horiz-adv-x="560" d="M488 31Q488 63 457 63H346V705Q346 738 313 738Q299 738 292 731L50 564Q36 553 36 537Q36 506 67 506Q77 506 85 512L280 647V63H98Q85 63 76 54T66 31Q66 18 75 9T98 0H457Q488 0 488 31Z" />
<glyph unicode="2" glyph-name="two" horiz-adv-x="560" d="M491 32Q491 63 460 63H135Q149 144 243 220Q285 252 325 284T406 349Q491 430 491 529Q491 616 441 674Q386 738 282 738Q164 738 91 672Q80 661 80 648Q80 635 89 625T112 615Q121 615 136 627Q159
646 176 654Q222 677 281 677Q352 677 391 633Q425 595 425 529Q425 447 336 369Q293 336 251 303T167 237Q65 144 65 32Q65 0 97 0H460Q491 0 491 32Z" />
<glyph unicode="3" glyph-name="three" horiz-adv-x="560" d="M478 198Q478 338 341 379Q460 423 460 543Q460 620 416 673Q363 738 258 738Q141 738 74 666Q62 652 62 641Q62 612 91 612Q100 612 114 624Q135 643 149 651Q196 679 257 679Q331 679 369 634Q399
596 399 538Q399 469 342 435Q301 409 236 404Q204 402 204 374Q204 347 236 345Q413 342 413 202Q413 135 373 94Q329 49 250 49Q181 49 133 79Q118 88 96 107Q82 119 74 119Q62 119 53 110T44 88Q44 76 55 65Q129 -9 252 -9Q360 -9 422 54Q478 112 478 198Z"
/>
<glyph unicode="4" glyph-name="four" horiz-adv-x="560" d="M502 181Q502 212 472 212H408V375Q408 407 376 407Q343 407 343 375V212H138L349 691Q352 697 352 703Q352 737 319 737Q298 737 289 717L60 197Q56 189 56 181Q56 149 87 149H343V23Q343 10 353 0T376
-10Q408 -10 408 23V149H472Q502 149 502 181Z" />
<glyph unicode="5" glyph-name="five" horiz-adv-x="560" d="M486 218Q486 326 431 384T275 442Q211 442 165 406L173 667H414Q446 667 446 698Q446 729 414 729H144Q112 729 111 698L100 348Q98 315 131 315Q144 315 156 327Q180 349 189 357Q223 382 272 382Q420
382 420 218Q420 146 382 102Q338 52 256 52Q183 52 134 91Q126 98 115 98Q102 98 93 88T83 65Q83 48 98 38Q160 -9 256 -9Q370 -9 432 62Q486 123 486 218Z" />
<glyph unicode="6" glyph-name="six" horiz-adv-x="560" d="M494 217Q494 325 430 383Q371 436 280 436Q216 436 158 398Q210 543 351 681Q362 692 362 704Q362 737 328 737Q315 737 305 727Q63 485 63 259Q63 134 121 63Q179 -9 277 -9Q376 -9 434 52Q494 113
494 217ZM428 216Q428 138 388 95T277 52Q213 52 173 101Q129 157 129 259Q129 289 135 319Q199 377 276 377Q344 377 384 337Q428 293 428 216Z" />
<glyph unicode="7" glyph-name="seven" horiz-adv-x="560" d="M495 698Q495 729 464 729H89Q58 729 58 698Q58 667 89 667H419L170 36Q168 28 168 24Q168 10 177 1T200 -9Q223 -9 231 12L491 677Q495 686 495 698Z" />
<glyph unicode="8" glyph-name="eight" horiz-adv-x="560" d="M515 187Q515 266 465 316Q430 352 351 385Q477 448 477 553Q477 639 420 690Q365 737 280 737Q195 737 140 691Q80 640 80 551Q80 437 209 379Q131 345 94 308Q45 259 45 186Q45 94 113 41Q178 -9
280 -9Q385 -9 450 44Q515 98 515 187ZM413 548Q413 498 374 464Q345 438 282 411Q213 437 186 461Q145 496 145 549Q145 610 182 644T280 678Q340 678 376 645T413 548ZM449 189Q449 126 404 89T279 51Q204 51 158 88T111 190Q111 251 163 291Q179 304 207 318T278
350Q365 317 397 294Q449 254 449 189Z" />
<glyph unicode="9" glyph-name="nine" horiz-adv-x="560" d="M501 469Q501 531 486 580T443 665T376 718T288 737Q190 737 130 676Q71 614 71 511Q71 404 135 346Q193 292 285 292Q349 292 407 330Q357 189 213 47Q203 37 203 25Q203 11 212 1T236 -9Q249 -9 259
1Q501 241 501 469ZM435 469Q435 455 434 441T430 409Q365 352 288 352Q220 352 180 392Q137 434 137 512Q137 590 177 633T287 676Q352 676 391 627Q435 572 435 469Z" />
<glyph unicode=":" glyph-name="colon" horiz-adv-x="224" d="M156 356Q156 376 142 390T108 404Q88 404 74 390T60 356Q60 336 74 322T108 308Q128 308 142 322T156 356ZM156 39Q156 59 142 73T108 87Q88 87 74 73T60 39Q60 20 74 6T108 -9Q128 -9 142 5T156 39Z" />
<glyph unicode=";" glyph-name="semicolon" horiz-adv-x="220" d="M151 356Q151 376 137 390T103 404Q84 404 70 390T55 356Q55 337 69 323T103 308Q123 308 137 322T151 356ZM152 29Q152 87 103 87Q83 87 69 74T55 40Q55 1 92 -6Q89 -29 72 -45Q56 -60 56 -67Q56
-84 73 -84Q93 -84 120 -53Q152 -16 152 29Z" />
<glyph unicode="&lt;" glyph-name="less" horiz-adv-x="422" d="M336 15Q365 15 365 44Q365 57 356 65L133 273L356 481Q365 488 365 502Q365 532 335 532Q324 532 316 524L73 297Q61 286 61 273Q61 259 73 249L316 23Q326 15 336 15Z" />
<glyph unicode="=" glyph-name="equal" horiz-adv-x="581" d="M497 365Q497 377 488 386T466 395H115Q102 395 93 386T84 365Q84 334 115 334H466Q497 334 497 365ZM497 186Q497 198 488 207T466 216H115Q102 216 93 207T84 186Q84 155 115 155H466Q497 155 497 186Z" />
<glyph unicode="&gt;" glyph-name="greater" horiz-adv-x="422" d="M361 273Q361 286 349 297L106 524Q98 532 87 532Q57 532 57 502Q57 490 66 481L288 273L66 65Q57 56 57 44Q57 15 86 15Q96 15 106 23L349 249Q361 259 361 273Z" />
<glyph unicode="?" glyph-name="question" horiz-adv-x="488" d="M430 548Q430 641 365 694Q309 738 234 738Q139 738 79 693Q44 667 44 649Q44 618 76 618Q87 618 95 626Q147 678 230 678Q282 678 320 646Q364 608 364 544Q364 496 340 465Q332 454 314 436T266
395Q216 354 197 320Q175 282 175 224Q175 192 206 192Q237 192 237 223Q237 260 249 284Q265 317 316 359Q379 409 399 440Q430 484 430 548ZM255 39Q255 59 241 73T207 87Q187 87 173 73T159 39Q159 20 173 6T207 -9Q227 -9 241 5T255 39Z" />
<glyph unicode="@" glyph-name="at" horiz-adv-x="831" d="M762 385Q762 508 687 588Q598 683 422 683Q256 683 157 561Q68 452 68 304Q68 160 145 71Q230 -29 398 -29Q466 -29 538 -11Q561 -5 561 14Q561 39 537 39Q537 39 499 31Q474 26 449 23T398 20Q254 20
182 105Q120 179 120 305Q120 433 195 528Q279 635 423 635Q575 635 650 556Q712 489 712 384Q712 310 674 257T584 204Q529 204 529 277Q529 293 532 312T540 357L561 451Q567 477 545 484Q491 502 437 502Q354 502 302 430Q254 365 254 284Q254 231 278 197Q306
157 357 157Q435 157 485 226Q508 155 582 155Q661 155 713 225Q762 292 762 385ZM506 441L483 335Q473 285 442 249Q409 212 363 212Q309 212 309 285Q309 347 344 397Q381 452 436 452Q470 452 506 441Z" />
<glyph unicode="A" glyph-name="A" horiz-adv-x="561" d="M545 32Q458 369 323 700Q306 738 281 738Q256 738 239 700Q170 530 115 364T16 32Q15 29 15 23Q15 -9 48 -9Q72 -9 78 16Q85 45 96 85T124 179H436Q446 148 457 108T481 16Q488 -9 513 -9Q546 -9 546
22Q546 29 545 32ZM418 241H142Q200 433 280 629Q319 530 353 434T418 241Z" />
<glyph unicode="B" glyph-name="B" horiz-adv-x="625" d="M564 186V213Q564 338 434 375Q533 415 533 520V551Q533 631 484 677Q429 729 323 729H118Q105 729 95 720T85 696V33Q85 20 95 10T118 0H342Q564 0 564 186ZM467 516Q467 399 269 399H151V666H322Q467
666 467 546V516ZM498 190Q498 128 467 98Q429 62 342 62H151V339H324Q406 339 452 307T498 215V190Z" />
<glyph unicode="C" glyph-name="C" horiz-adv-x="550" d="M509 86Q509 117 479 116Q470 116 461 109T442 93Q390 52 317 52Q220 52 177 113T134 304V424Q134 677 323 677Q395 677 440 638Q468 615 476 615Q507 616 507 646Q507 656 496 670Q437 738 323 738Q192
738 127 649Q68 567 68 425V304Q68 -9 317 -9Q432 -9 498 62Q509 75 509 86Z" />
<glyph unicode="D" glyph-name="D" horiz-adv-x="641" d="M573 270V457Q573 729 316 729H118Q105 729 95 720T85 696V33Q85 20 95 10T118 0H316Q573 0 573 270ZM507 271Q507 62 314 62H151V665H314Q507 665 507 456V271Z" />
<glyph unicode="E" glyph-name="E" horiz-adv-x="548" d="M508 32Q508 63 477 63H151V333H434Q465 333 465 364Q465 395 434 395H151V665H462Q493 665 493 697Q493 710 484 719T462 729H117Q104 729 95 720T85 697V32Q85 19 94 10T117 0H477Q508 0 508 32Z" />
<glyph unicode="F" glyph-name="F" horiz-adv-x="513" d="M485 697Q485 710 476 719T453 729H117Q104 729 95 720T85 697V24Q85 11 95 1T118 -9Q151 -9 151 24V333H405Q436 333 436 364Q436 395 405 395H151V665H453Q485 665 485 697Z" />
<glyph unicode="G" glyph-name="G" horiz-adv-x="608" d="M548 239V331Q548 364 516 364H338Q307 364 307 333Q307 302 338 302H484V238Q484 52 317 52Q221 52 178 113T134 304V424Q134 677 324 677Q394 677 441 638Q469 615 477 615Q509 617 509 646Q509 658
498 669Q439 738 324 738Q192 738 127 649Q68 569 68 425V304Q68 -9 318 -9Q432 -9 492 60Q548 125 548 239Z" />
<glyph unicode="H" glyph-name="H" horiz-adv-x="669" d="M583 24V705Q583 738 550 738Q537 738 527 729T517 705V389H151V705Q151 738 118 738Q105 738 95 729T85 705V24Q85 11 95 1T118 -9Q151 -9 151 24V327H517V24Q517 11 527 1T550 -9Q583 -9 583 24Z" />
<glyph unicode="I" glyph-name="I" horiz-adv-x="237" d="M151 24V705Q151 738 118 738Q105 738 95 729T85 705V24Q85 11 95 1T118 -9Q151 -9 151 24Z" />
<glyph unicode="J" glyph-name="J" horiz-adv-x="425" d="M350 254V705Q350 719 341 728T317 738Q304 738 294 729T284 705V254Q284 147 246 101T117 54Q85 54 69 57Q34 63 36 63Q5 63 5 31Q5 6 31 0Q71 -9 117 -9Q350 -9 350 254Z" />
<glyph unicode="K" glyph-name="K" horiz-adv-x="554" d="M531 40Q479 130 419 223T287 414L513 684Q520 692 520 704Q520 717 511 727T488 738Q473 738 463 726L151 342V705Q151 738 118 738Q105 738 95 729T85 705V24Q85 11 95 1T118 -9Q151 -9 151 24V252L244
364Q307 277 363 189T473 9Q483 -9 501 -9Q514 -9 525 0T536 23Q536 32 531 40Z" />
<glyph unicode="L" glyph-name="L" horiz-adv-x="514" d="M508 32Q508 45 499 54T476 63H151V705Q151 738 118 738Q105 738 95 729T85 705V32Q85 19 94 10T117 0H476Q489 0 498 9T508 32Z" />
<glyph unicode="M" glyph-name="M" horiz-adv-x="775" d="M689 707Q689 738 657 738Q636 738 627 719L388 212L150 718Q141 738 118 738Q85 738 85 707V22Q85 -9 116 -9Q147 -9 147 22V587L356 139Q365 120 386 120Q408 120 417 139L627 588V22Q627 -9 658 -9Q689
-9 689 22V707Z" />
<glyph unicode="N" glyph-name="N" horiz-adv-x="666" d="M581 22V707Q581 738 550 738Q519 738 519 707V125L151 719Q139 738 118 738Q85 738 85 707V22Q85 -9 116 -9Q147 -9 147 22V603L516 8Q527 -9 548 -9Q581 -9 581 22Z" />
<glyph unicode="O" glyph-name="O" horiz-adv-x="625" d="M557 261V468Q557 583 504 654Q439 738 313 738Q185 738 122 654Q68 583 68 468V261Q68 145 122 75Q185 -9 313 -9Q439 -9 504 75Q557 146 557 261ZM491 261Q491 52 313 52Q134 52 134 261V468Q134 677
313 677Q491 677 491 468V261Z" />
<glyph unicode="P" glyph-name="P" horiz-adv-x="585" d="M541 486V536Q541 616 490 667Q428 729 311 729H118Q105 729 95 720T85 696V24Q85 11 95 1T118 -9Q151 -9 151 24V298H322Q373 298 413 311T482 350T526 409T541 486ZM475 487Q475 431 438 397Q395 359
320 359H151V666H308Q398 666 441 623Q475 589 475 536V487Z" />
<glyph unicode="Q" glyph-name="Q" horiz-adv-x="625" d="M553 -31Q565 -31 575 -21T585 1Q585 14 574 23L508 81Q557 151 557 261V468Q557 583 504 654Q439 738 313 738Q185 738 122 654Q68 583 68 468V261Q68 145 122 75Q185 -9 313 -9Q406 -9 467 38L532 -22Q542
-31 553 -31ZM491 261Q491 177 460 125L418 162Q407 171 396 171Q368 171 368 142Q368 130 379 119L420 82Q376 52 313 52Q134 52 134 261V468Q134 677 313 677Q491 677 491 468V261Z" />
<glyph unicode="R" glyph-name="R" horiz-adv-x="598" d="M544 39Q514 98 473 167T380 319Q459 334 503 388Q541 437 541 500V545Q541 624 487 674Q428 729 310 729H118Q105 729 95 720T85 696V24Q85 11 95 1T118 -9Q151 -9 151 24V310H308Q414 146 485 10Q495
-9 513 -9Q527 -9 537 0T548 23Q548 32 544 39ZM475 500Q475 447 438 413Q394 371 310 371H151V667H309Q396 667 440 628Q475 596 475 545V500Z" />
<glyph unicode="S" glyph-name="S" horiz-adv-x="573" d="M523 209Q523 307 455 354Q420 377 341 394Q228 416 220 418Q120 446 120 534Q120 600 164 638T284 677Q323 677 377 661Q434 646 440 646Q471 646 471 679Q471 699 450 708Q382 738 281 738Q181 738 117
682Q54 626 54 530Q54 418 145 376Q180 359 254 346Q298 338 324 332T360 323Q457 292 457 205Q457 135 410 94Q361 51 264 51Q215 51 172 60Q142 66 113 78Q90 87 84 87Q54 87 54 54Q54 34 74 25Q149 -9 267 -9Q387 -9 455 48T523 209Z" />
<glyph unicode="T" glyph-name="T" horiz-adv-x="558" d="M551 697Q551 710 542 719T519 729H39Q26 729 17 720T7 697Q7 665 39 665H246V24Q246 11 256 1T279 -9Q293 -9 302 1T312 24V665H519Q551 665 551 697Z" />
<glyph unicode="U" glyph-name="U" horiz-adv-x="626" d="M557 237V705Q557 738 524 738Q511 738 501 729T491 705V238Q491 155 450 106Q404 51 313 51Q222 51 176 106Q134 154 134 238V705Q134 719 125 728T101 738Q88 738 78 729T68 705V237Q68 130 127 63Q191
-9 313 -9Q433 -9 498 63Q557 130 557 237Z" />
<glyph unicode="V" glyph-name="V" horiz-adv-x="561" d="M546 699Q547 702 547 708Q547 738 516 738Q494 738 488 716Q448 582 397 430T282 101Q225 256 175 408T79 714Q71 738 48 738Q35 738 25 729T14 706Q14 703 16 695Q100 408 241 23Q253 -9 280 -9Q305
-9 317 23Q392 224 448 392T546 699Z" />
<glyph unicode="W" glyph-name="W" horiz-adv-x="859" d="M840 707Q840 738 806 738Q781 738 775 712Q744 574 706 424T620 106Q580 249 543 396T470 699Q461 738 430 738Q398 738 389 699Q322 407 239 106Q195 259 157 409T84 712Q78 738 53 738Q19 738 19 707Q19
671 97 379Q125 275 149 188T194 29Q205 -9 237 -9Q268 -9 279 29Q372 359 429 602Q499 303 579 29Q590 -9 622 -9Q654 -9 665 29Q762 366 839 698Q839 701 840 703V707Z" />
<glyph unicode="X" glyph-name="X" horiz-adv-x="539" d="M533 23Q533 30 528 40Q487 110 433 195T309 380Q363 458 410 534T500 689Q504 696 504 706Q504 719 494 728T470 738Q453 738 443 720Q364 576 270 437Q223 505 180 575T97 720Q86 738 69 738Q56 738
46 729T36 706Q36 696 40 689Q83 611 130 535T231 380Q168 290 114 206T12 40Q7 30 7 23Q7 10 17 1T41 -9Q57 -9 68 8Q112 83 162 161T270 323Q380 164 472 7Q481 -9 499 -9Q512 -9 522 0T533 23Z" />
<glyph unicode="Y" glyph-name="Y" horiz-adv-x="492" d="M492 706Q492 720 482 729T458 738Q439 738 430 718Q394 633 349 540T246 341L232 368Q126 570 63 718Q54 738 34 738Q21 738 11 729T0 706Q0 699 3 692Q41 604 93 498T212 266V24Q212 11 222 1T245 -9Q278
-9 278 24V266Q342 383 394 489T489 693Q492 700 492 706Z" />
<glyph unicode="Z" glyph-name="Z" horiz-adv-x="500" d="M482 32Q482 63 451 63H102L471 670Q481 686 481 697Q481 729 450 729H48Q35 729 26 720T17 697Q17 665 48 665H392L25 62Q15 46 15 32Q15 0 47 0H451Q482 0 482 32Z" />
<glyph unicode="[" glyph-name="bracketleft" horiz-adv-x="247" d="M201 -65Q201 -52 192 -43T169 -33H116V760H169Q201 760 201 791Q201 823 169 823H82Q50 823 50 791V-65Q50 -97 82 -97H169Q201 -97 201 -65Z" />
<glyph unicode="\" glyph-name="backslash" horiz-adv-x="353" d="M359 -21L56 777Q48 797 27 797Q-4 797 -4 766Q-4 761 -2 755L302 -43Q310 -63 331 -63Q361 -63 361 -32Q361 -27 359 -21Z" />
<glyph unicode="]" glyph-name="bracketright" horiz-adv-x="247" d="M197 -65V791Q197 823 165 823H78Q46 823 46 791Q46 760 78 760H131V-33H78Q65 -33 56 -42T46 -65Q46 -97 78 -97H165Q197 -97 197 -65Z" />
<glyph unicode="^" glyph-name="asciicircum" horiz-adv-x="489" d="M438 460L277 716Q263 737 245 737Q225 737 212 716L51 460Q46 452 46 444Q46 413 78 413Q94 413 103 427L245 653L386 427Q395 413 412 413Q443 413 443 444Q443 452 438 460Z" />
<glyph unicode="_" glyph-name="underscore" horiz-adv-x="463" d="M493 -133Q493 -103 464 -103H0Q-12 -103 -21 -112T-30 -133Q-30 -162 0 -162H464Q493 -162 493 -133Z" />
<glyph unicode="`" glyph-name="grave" horiz-adv-x="530" d="M334 635L250 786Q241 802 223 802Q193 802 193 773Q193 765 197 758L286 610Q295 596 310 596Q338 596 338 622Q338 630 334 635Z" />
<glyph unicode="a" glyph-name="a" horiz-adv-x="489" d="M450 23Q450 40 434 47Q405 61 405 113V309Q405 408 369 453Q328 504 227 504Q140 504 87 470Q72 461 72 446Q72 417 101 417Q110 417 117 421Q165 448 225 448Q293 448 319 415Q341 387 341 313V286H216Q126
286 79 245Q38 207 38 145V137Q38 74 77 37Q121 -6 210 -6Q307 -6 351 50Q358 27 371 15Q393 -6 419 -6Q450 -6 450 23ZM341 167Q341 48 218 48Q102 48 102 136V145Q102 233 220 233H341V167Z" />
<glyph unicode="b" glyph-name="b" horiz-adv-x="507" d="M452 194V295Q452 504 281 504Q205 504 148 453V692Q148 724 116 724Q84 724 84 692V113Q84 63 63 51Q55 46 47 41T39 23Q39 -6 71 -6Q89 -6 108 7T135 38Q194 -6 270 -6Q452 -6 452 194ZM388 191Q388
52 264 52Q198 52 148 96V385Q196 446 272 446Q388 446 388 301V191Z" />
<glyph unicode="c" glyph-name="c" d="M383 61Q376 77 360 77Q352 77 345 73Q302 51 250 51Q119 51 119 212V286Q119 359 153 402T251 446Q302 446 343 425Q350 421 357 421Q385 421 385 451Q385 466 370 475Q320 504 248 504Q156 504 104 438Q56 378 56 283V213Q56
112 102 56Q152 -6 247 -6Q316 -6 371 23Q395 36 383 61Z" />
<glyph unicode="d" glyph-name="d" horiz-adv-x="507" d="M468 23Q468 40 452 47Q431 55 427 74Q423 83 423 113V692Q423 724 391 724Q360 724 360 692V460Q304 504 233 504Q56 504 56 286V190Q56 -6 237 -6Q310 -6 371 41Q379 22 398 8T437 -6Q468 -6 468 23ZM360
100Q304 52 244 52Q177 52 148 85T119 188V292Q119 446 241 446Q310 446 360 393V100Z" />
<glyph unicode="e" glyph-name="e" horiz-adv-x="483" d="M435 297Q435 504 246 504Q149 504 99 442Q56 387 56 295V202Q56 109 99 56Q149 -6 246 -6Q340 -6 405 33Q427 46 416 70Q408 87 392 87Q384 87 379 83Q323 51 247 51Q119 51 119 199V229H409Q435 229
435 256V297ZM373 303V283H119V302Q119 448 246 448Q373 448 373 303Z" />
<glyph unicode="f" glyph-name="f" horiz-adv-x="288" d="M317 697Q317 727 287 727H257Q156 727 116 672Q82 626 82 526V498H47Q18 498 18 469Q18 440 47 440H82V26Q82 -6 114 -6Q145 -6 145 26V440H238Q267 440 267 469Q267 498 238 498H145V526Q145 606 167
634Q191 667 261 667H287Q317 667 317 697Z" />
<glyph unicode="g" glyph-name="g" horiz-adv-x="497" d="M424 472Q424 504 392 504Q379 504 370 495T360 472V455Q302 504 231 504Q56 504 56 297V217Q56 16 228 16Q299 16 360 60V31Q360 -126 230 -126Q204 -126 162 -114Q120 -103 107 -103Q79 -103 79 -132Q79
-151 98 -158Q154 -183 233 -183Q424 -183 424 33V472ZM360 123Q309 75 236 75Q119 75 119 213V302Q119 445 238 445Q310 445 360 388V123Z" />
<glyph unicode="h" glyph-name="h" horiz-adv-x="519" d="M447 26V324Q447 504 286 504Q190 504 137 448V692Q137 705 128 714T105 724Q73 724 73 692V26Q73 -6 105 -6Q118 -6 127 3T137 26V368Q179 443 277 443Q338 443 363 409Q384 380 384 320V26Q384 -6 416
-6Q447 -6 447 26Z" />
<glyph unicode="i" glyph-name="i" horiz-adv-x="209" d="M144 671Q144 687 133 698T105 710Q89 710 78 699T66 671Q66 655 77 644T105 632Q121 632 132 643T144 671ZM137 26V472Q137 485 128 494T105 504Q92 504 83 495T73 472V26Q73 -6 105 -6Q118 -6 127 3T137 26Z" />
<glyph unicode="j" glyph-name="j" horiz-adv-x="209" d="M144 671Q144 687 133 698T105 710Q89 710 78 699T66 671Q66 655 77 644T105 632Q121 632 132 643T144 671ZM137 472Q137 485 128 494T105 504Q92 504 83 495T73 472V-11Q73 -75 52 -99T-14 -125Q-43 -127
-43 -154Q-43 -183 -14 -183Q137 -183 137 -9V472Z" />
<glyph unicode="k" glyph-name="k" horiz-adv-x="447" d="M428 38Q397 99 355 164T259 302L409 454Q417 464 417 475Q417 504 388 504Q377 504 368 495L137 259V692Q137 705 128 714T105 724Q73 724 73 692V26Q73 -6 105 -6Q118 -6 127 3T137 26V179L214 258Q262
195 301 134T371 12Q380 -6 398 -6Q411 -6 421 2T432 24Q432 31 428 38Z" />
<glyph unicode="l" glyph-name="l" horiz-adv-x="221" d="M182 23Q182 40 166 47Q133 60 133 113V692Q133 724 102 724Q70 724 70 692V96Q70 44 102 15Q124 -6 151 -6Q182 -6 182 23Z" />
<glyph unicode="m" glyph-name="m" horiz-adv-x="820" d="M748 26V324Q748 504 590 504Q482 504 428 432Q393 504 292 504Q194 504 140 445Q134 463 119 477Q95 498 71 498Q39 498 39 468Q39 451 55 444Q88 429 88 379V26Q88 -6 120 -6Q133 -6 142 3T152 26V375Q191
443 283 443Q341 443 365 410Q386 381 386 320V26Q386 -6 418 -6Q431 -6 440 3T450 26V324Q450 346 447 367Q484 443 581 443Q639 443 663 410Q684 381 684 320V26Q684 -6 716 -6Q748 -6 748 26Z" />
<glyph unicode="n" glyph-name="n" horiz-adv-x="534" d="M462 26V324Q462 504 301 504Q196 504 142 440Q134 463 119 477Q96 498 71 498Q39 498 39 468Q39 451 55 444Q88 429 88 379V26Q88 -6 120 -6Q133 -6 142 3T152 26V368Q194 443 292 443Q353 443 377 409Q398
380 398 320V26Q398 13 407 4T430 -6Q462 -6 462 26Z" />
<glyph unicode="o" glyph-name="o" horiz-adv-x="500" d="M444 198V300Q444 391 399 444Q349 504 250 504Q150 504 101 444Q56 391 56 300V198Q56 106 101 54Q150 -6 250 -6Q349 -6 399 54Q444 106 444 198ZM380 198Q380 54 250 54Q119 54 119 198V300Q119 443
250 443Q380 443 380 300V198Z" />
<glyph unicode="p" glyph-name="p" horiz-adv-x="507" d="M452 212V307Q452 504 271 504Q199 504 137 457Q113 504 71 504Q39 504 39 474Q39 456 55 449Q72 442 78 430T84 385V-151Q84 -183 116 -183Q148 -183 148 -151V37Q204 -6 274 -6Q452 -6 452 212ZM388
205Q388 52 267 52Q196 52 148 105V398Q205 446 264 446Q331 446 361 412Q388 380 388 310V205Z" />
<glyph unicode="q" glyph-name="q" horiz-adv-x="507" d="M468 474Q468 504 437 504Q418 504 399 491T372 460Q311 504 238 504Q56 504 56 304V203Q56 -6 227 -6Q303 -6 360 45V-151Q360 -183 391 -183Q423 -183 423 -151V385Q423 417 429 429Q435 442 451 449Q468
457 468 474ZM360 402V113Q311 52 236 52Q119 52 119 197V307Q119 446 244 446Q307 446 360 402Z" />
<glyph unicode="r" glyph-name="r" horiz-adv-x="372" d="M338 434Q351 434 360 444T369 467Q369 486 351 494Q327 504 283 504Q192 504 145 433Q130 483 80 497Q77 497 75 498H71Q39 498 39 468Q39 451 55 444Q88 429 88 379V26Q88 -6 120 -6Q133 -6 142 3T152
26V335Q172 442 275 442Q287 442 307 438T338 434Z" />
<glyph unicode="s" glyph-name="s" horiz-adv-x="422" d="M380 143Q380 226 308 258Q274 266 241 274T175 291Q103 310 103 363Q103 401 129 424T207 447Q262 447 309 428Q315 426 320 426Q348 426 348 455Q348 475 329 482Q278 504 205 504Q169 504 140 494T88
466T54 421T42 361Q42 280 114 249L246 216Q318 196 318 141Q318 51 199 51Q133 51 79 71Q73 73 68 73Q49 73 42 54Q32 26 58 16Q115 -6 198 -6Q283 -6 331 32T380 143Z" />
<glyph unicode="t" glyph-name="t" horiz-adv-x="315" d="M304 30Q304 42 295 51T274 60H252Q189 60 167 94Q148 123 148 209V440H248Q277 440 277 469Q277 498 248 498H148V618Q148 650 116 650Q84 650 84 618V498H49Q20 498 20 469Q20 440 49 440H84V209Q84
103 115 57Q152 0 248 0H274Q304 0 304 30Z" />
<glyph unicode="u" glyph-name="u" horiz-adv-x="535" d="M495 23Q495 40 479 47Q447 61 447 113V472Q447 485 438 494T415 504Q402 504 393 495T383 472V135Q346 56 243 56Q182 56 157 89Q136 116 136 178V472Q136 485 127 494T104 504Q91 504 82 495T72 472V173Q72
-6 234 -6Q336 -6 392 56Q400 29 415 15Q437 -6 464 -6Q495 -6 495 23Z" />
<glyph unicode="v" glyph-name="v" horiz-adv-x="446" d="M424 463Q426 469 426 474Q426 487 416 495T393 504Q371 504 364 482Q331 382 295 283T221 83Q138 297 80 482Q73 504 53 504Q20 504 20 474Q20 470 22 464Q55 361 94 252T179 26Q193 -6 221 -6Q248 -6
262 26Q354 252 424 463Z" />
<glyph unicode="w" glyph-name="w" horiz-adv-x="697" d="M673 467Q674 470 674 475Q674 504 643 504Q620 504 614 481Q583 370 555 273T499 90Q466 195 438 291T385 475Q377 504 349 504Q320 504 312 475Q288 387 260 291T198 90Q170 180 142 277T84 481Q78 504
55 504Q24 504 24 475Q24 470 25 467Q77 267 157 22Q166 -6 196 -6Q226 -6 235 22Q267 119 295 212T349 395Q377 298 405 205T462 22Q471 -6 501 -6Q531 -6 540 22Q578 142 611 253T673 467Z" />
<glyph unicode="x" glyph-name="x" horiz-adv-x="439" d="M408 40Q364 123 258 258Q306 319 340 369T394 460Q398 467 398 474Q398 487 388 495T365 504Q347 504 338 486Q302 416 220 308Q140 413 103 485Q93 504 75 504Q62 504 52 495T41 473Q41 465 45 458Q65
420 98 370T180 256Q71 114 31 38Q27 31 27 23Q27 11 37 3T60 -6Q77 -6 86 11Q105 46 138 95T219 207Q265 146 297 98T350 12Q359 -6 378 -6Q391 -6 401 3T412 25Q412 33 408 40Z" />
<glyph unicode="y" glyph-name="y" horiz-adv-x="443" d="M423 461Q425 469 425 473Q425 504 392 504Q370 504 363 482L224 77Q135 302 77 482Q70 504 49 504Q16 504 16 474Q16 470 18 464Q47 374 90 258T191 -4Q134 -120 38 -121Q8 -123 8 -151Q8 -185 41 -183Q128
-181 184 -121Q238 -66 285 68L423 461Z" />
<glyph unicode="z" glyph-name="z" horiz-adv-x="414" d="M394 468Q394 498 364 498H69Q40 498 40 468Q40 438 69 438H306L27 50Q21 42 21 32Q21 0 51 0H364Q394 0 394 30Q394 59 364 59H108L386 445Q394 456 394 468Z" />
<glyph unicode="{" glyph-name="braceleft" horiz-adv-x="282" d="M243 -65Q242 -34 212 -34H207Q181 -34 164 -12T146 53Q146 89 165 153Q185 221 185 254Q185 331 127 362V365Q185 396 185 474Q185 507 165 575Q146 639 146 674Q146 716 163 739T207 762H212Q241
762 243 792Q245 824 211 824H205Q177 824 154 813T115 782T89 735T80 676Q80 642 100 573Q121 505 121 473Q121 430 100 409Q83 392 64 392H58Q30 392 30 364Q30 336 58 336H64Q84 336 100 320Q121 297 121 255Q121 222 100 155Q80 86 80 51Q80 19 89 -8T114 -54T154
-85T205 -96H211Q244 -96 243 -65Z" />
<glyph unicode="|" glyph-name="bar" horiz-adv-x="214" d="M140 -63V792Q140 806 131 815T107 825Q94 825 84 816T74 792V-63Q74 -96 107 -96Q140 -96 140 -63Z" />
<glyph unicode="}" glyph-name="braceright" horiz-adv-x="282" d="M253 364Q253 392 225 392H219Q198 392 183 409Q162 430 162 473Q162 504 182 573T202 676Q202 742 169 783T78 824H71Q40 824 40 792Q40 762 70 762H75Q101 762 119 739T137 674Q137 643 117
575Q98 511 98 474Q98 396 155 365V362Q98 330 98 254Q98 217 117 153Q137 85 137 53Q137 11 119 -11T75 -34H70Q40 -34 40 -65Q40 -96 71 -96H78Q135 -96 168 -55T202 51Q202 86 182 155T162 255Q162 297 183 320Q198 336 219 336H225Q253 336 253 364Z" />
<glyph unicode="~" glyph-name="asciitilde" horiz-adv-x="502" d="M439 284Q439 317 406 317Q396 317 375 302Q353 288 326 288Q299 288 254 310T172 332Q128 332 96 313Q63 295 63 269Q63 255 73 246T97 236Q107 236 127 250Q148 265 177 265Q203 265 248 243Q294
222 331 222Q352 222 371 227T406 240T430 259T439 284Z" />
<glyph unicode="&#x80;" glyph-name="Euro Symbol" horiz-adv-x="589" d="M547 86Q547 118 518 116Q508 116 499 109T480 93Q427 52 355 52Q267 52 225 102T175 258H386Q413 258 413 285Q413 312 386 312H173V415H386Q413 415 413 441Q413 468 386 468H175Q189
677 362 677Q435 677 479 639Q488 631 496 623T514 615Q545 616 545 646Q545 656 534 670Q475 738 362 738Q127 738 108 468H73Q46 468 46 441Q46 415 73 415H107V312H73Q46 312 46 285Q46 258 73 258H108Q126 -9 355 -9Q471 -9 536 62Q547 75 547 86Z" />
</font>
</defs>
</svg>
